C:\OpenCap\opencap-processing\Data\f695a51c-2aed-4feb-b28d-2290ed51e9ec\OpenSimData\Dynamics\Javelin50\GRF_Javelin50_0.mot
version=1
nRows=4
nColumns=109
inDegrees=yes
endheader 
time	ground_force_SmoothSphereHalfSpaceForce_s1_r_vx	ground_force_SmoothSphereHalfSpaceForce_s1_r_vy	ground_force_SmoothSphereHalfSpaceForce_s1_r_vz	ground_force_SmoothSphereHalfSpaceForce_s1_r_px	ground_force_SmoothSphereHalfSpaceForce_s1_r_py	ground_force_SmoothSphereHalfSpaceForce_s1_r_pz	ground_torque_SmoothSphereHalfSpaceForce_s1_r_x	ground_torque_SmoothSphereHalfSpaceForce_s1_r_y	ground_torque_SmoothSphereHalfSpaceForce_s1_r_z	ground_force_SmoothSphereHalfSpaceForce_s2_r_vx	ground_force_SmoothSphereHalfSpaceForce_s2_r_vy	ground_force_SmoothSphereHalfSpaceForce_s2_r_vz	ground_force_SmoothSphereHalfSpaceForce_s2_r_px	ground_force_SmoothSphereHalfSpaceForce_s2_r_py	ground_force_SmoothSphereHalfSpaceForce_s2_r_pz	ground_torque_SmoothSphereHalfSpaceForce_s2_r_x	ground_torque_SmoothSphereHalfSpaceForce_s2_r_y	ground_torque_SmoothSphereHalfSpaceForce_s2_r_z	ground_force_SmoothSphereHalfSpaceForce_s3_r_vx	ground_force_SmoothSphereHalfSpaceForce_s3_r_vy	ground_force_SmoothSphereHalfSpaceForce_s3_r_vz	ground_force_SmoothSphereHalfSpaceForce_s3_r_px	ground_force_SmoothSphereHalfSpaceForce_s3_r_py	ground_force_SmoothSphereHalfSpaceForce_s3_r_pz	ground_torque_SmoothSphereHalfSpaceForce_s3_r_x	ground_torque_SmoothSphereHalfSpaceForce_s3_r_y	ground_torque_SmoothSphereHalfSpaceForce_s3_r_z	ground_force_SmoothSphereHalfSpaceForce_s4_r_vx	ground_force_SmoothSphereHalfSpaceForce_s4_r_vy	ground_force_SmoothSphereHalfSpaceForce_s4_r_vz	ground_force_SmoothSphereHalfSpaceForce_s4_r_px	ground_force_SmoothSphereHalfSpaceForce_s4_r_py	ground_force_SmoothSphereHalfSpaceForce_s4_r_pz	ground_torque_SmoothSphereHalfSpaceForce_s4_r_x	ground_torque_SmoothSphereHalfSpaceForce_s4_r_y	ground_torque_SmoothSphereHalfSpaceForce_s4_r_z	ground_force_SmoothSphereHalfSpaceForce_s5_r_vx	ground_force_SmoothSphereHalfSpaceForce_s5_r_vy	ground_force_SmoothSphereHalfSpaceForce_s5_r_vz	ground_force_SmoothSphereHalfSpaceForce_s5_r_px	ground_force_SmoothSphereHalfSpaceForce_s5_r_py	ground_force_SmoothSphereHalfSpaceForce_s5_r_pz	ground_torque_SmoothSphereHalfSpaceForce_s5_r_x	ground_torque_SmoothSphereHalfSpaceForce_s5_r_y	ground_torque_SmoothSphereHalfSpaceForce_s5_r_z	ground_force_SmoothSphereHalfSpaceForce_s6_r_vx	ground_force_SmoothSphereHalfSpaceForce_s6_r_vy	ground_force_SmoothSphereHalfSpaceForce_s6_r_vz	ground_force_SmoothSphereHalfSpaceForce_s6_r_px	ground_force_SmoothSphereHalfSpaceForce_s6_r_py	ground_force_SmoothSphereHalfSpaceForce_s6_r_pz	ground_torque_SmoothSphereHalfSpaceForce_s6_r_x	ground_torque_SmoothSphereHalfSpaceForce_s6_r_y	ground_torque_SmoothSphereHalfSpaceForce_s6_r_z	ground_force_SmoothSphereHalfSpaceForce_s1_l_vx	ground_force_SmoothSphereHalfSpaceForce_s1_l_vy	ground_force_SmoothSphereHalfSpaceForce_s1_l_vz	ground_force_SmoothSphereHalfSpaceForce_s1_l_px	ground_force_SmoothSphereHalfSpaceForce_s1_l_py	ground_force_SmoothSphereHalfSpaceForce_s1_l_pz	ground_torque_SmoothSphereHalfSpaceForce_s1_l_x	ground_torque_SmoothSphereHalfSpaceForce_s1_l_y	ground_torque_SmoothSphereHalfSpaceForce_s1_l_z	ground_force_SmoothSphereHalfSpaceForce_s2_l_vx	ground_force_SmoothSphereHalfSpaceForce_s2_l_vy	ground_force_SmoothSphereHalfSpaceForce_s2_l_vz	ground_force_SmoothSphereHalfSpaceForce_s2_l_px	ground_force_SmoothSphereHalfSpaceForce_s2_l_py	ground_force_SmoothSphereHalfSpaceForce_s2_l_pz	ground_torque_SmoothSphereHalfSpaceForce_s2_l_x	ground_torque_SmoothSphereHalfSpaceForce_s2_l_y	ground_torque_SmoothSphereHalfSpaceForce_s2_l_z	ground_force_SmoothSphereHalfSpaceForce_s3_l_vx	ground_force_SmoothSphereHalfSpaceForce_s3_l_vy	ground_force_SmoothSphereHalfSpaceForce_s3_l_vz	ground_force_SmoothSphereHalfSpaceForce_s3_l_px	ground_force_SmoothSphereHalfSpaceForce_s3_l_py	ground_force_SmoothSphereHalfSpaceForce_s3_l_pz	ground_torque_SmoothSphereHalfSpaceForce_s3_l_x	ground_torque_SmoothSphereHalfSpaceForce_s3_l_y	ground_torque_SmoothSphereHalfSpaceForce_s3_l_z	ground_force_SmoothSphereHalfSpaceForce_s4_l_vx	ground_force_SmoothSphereHalfSpaceForce_s4_l_vy	ground_force_SmoothSphereHalfSpaceForce_s4_l_vz	ground_force_SmoothSphereHalfSpaceForce_s4_l_px	ground_force_SmoothSphereHalfSpaceForce_s4_l_py	ground_force_SmoothSphereHalfSpaceForce_s4_l_pz	ground_torque_SmoothSphereHalfSpaceForce_s4_l_x	ground_torque_SmoothSphereHalfSpaceForce_s4_l_y	ground_torque_SmoothSphereHalfSpaceForce_s4_l_z	ground_force_SmoothSphereHalfSpaceForce_s5_l_vx	ground_force_SmoothSphereHalfSpaceForce_s5_l_vy	ground_force_SmoothSphereHalfSpaceForce_s5_l_vz	ground_force_SmoothSphereHalfSpaceForce_s5_l_px	ground_force_SmoothSphereHalfSpaceForce_s5_l_py	ground_force_SmoothSphereHalfSpaceForce_s5_l_pz	ground_torque_SmoothSphereHalfSpaceForce_s5_l_x	ground_torque_SmoothSphereHalfSpaceForce_s5_l_y	ground_torque_SmoothSphereHalfSpaceForce_s5_l_z	ground_force_SmoothSphereHalfSpaceForce_s6_l_vx	ground_force_SmoothSphereHalfSpaceForce_s6_l_vy	ground_force_SmoothSphereHalfSpaceForce_s6_l_vz	ground_force_SmoothSphereHalfSpaceForce_s6_l_px	ground_force_SmoothSphereHalfSpaceForce_s6_l_py	ground_force_SmoothSphereHalfSpaceForce_s6_l_pz	ground_torque_SmoothSphereHalfSpaceForce_s6_l_x	ground_torque_SmoothSphereHalfSpaceForce_s6_l_y	ground_torque_SmoothSphereHalfSpaceForce_s6_l_z	
          3.33000000	          0.00000000	         -0.00000000	          0.00000000	         -1.79016591	          0.11483313	         -0.22322977	          0.00000000	          0.00000000	          0.00000000	          0.00000000	         -0.00000000	          0.00000000	         -1.81424512	          0.03309021	         -0.20220437	          0.00000000	          0.00000000	          0.00000000	         -0.00000000	         -0.00000000	         -0.00000000	         -1.81850348	          0.05493302	         -0.12167023	          0.00000000	          0.00000000	          0.00000000	         -0.00000000	         -0.00000000	         -0.00000000	         -1.80433140	          0.08594607	         -0.17022702	          0.00000000	          0.00000000	          0.00000000	        -67.62845762	         39.56959103	        -12.92043694	         -1.82510825	         -0.00526217	         -0.16500977	          0.00000000	          0.00000000	          0.00000000	         -0.00000448	          0.00000274	         -0.00000118	         -1.82425620	          0.01618935	         -0.08370574	          0.00000000	          0.00000000	          0.00000000	          0.00000000	         -0.00000000	          0.00000000	         -0.98210246	         -0.00112111	         -0.52071649	          0.00000000	          0.00000000	          0.00000000	        -30.89031208	        134.10338751	         -7.53666536	         -0.86300532	         -0.01659679	         -0.40843391	          0.00000000	          0.00000000	          0.00000000	         -4.34770431	         15.69712864	          4.39734929	         -0.82630291	         -0.00058604	         -0.48615050	          0.00000000	          0.00000000	          0.00000000	         -0.15706531	          0.86871787	         -0.10199166	         -0.90376577	         -0.00030822	         -0.50627619	          0.00000000	          0.00000000	          0.00000000	       -260.49966028	        408.87827868	         62.93718264	         -0.78730356	         -0.01386398	         -0.36638606	          0.00000000	          0.00000000	          0.00000000	         -0.01252550	          0.01470674	          0.00480674	         -0.75360961	          0.00837041	         -0.43945443	          0.00000000	          0.00000000	          0.00000000	
          3.34000000	          0.00000000	         -0.00000000	          0.00000000	         -1.77337186	          0.11719471	         -0.20819949	          0.00000000	          0.00000000	          0.00000000	         -0.00000000	         -0.00000000	         -0.00000000	         -1.79333098	          0.03478879	         -0.19448138	          0.00000000	          0.00000000	          0.00000000	         -0.00000000	         -0.00000000	         -0.00000000	         -1.79919432	          0.05478914	         -0.11215351	          0.00000000	          0.00000000	          0.00000000	         -0.00000000	         -0.00000000	         -0.00000000	         -1.78634798	          0.08700502	         -0.15786310	          0.00000000	          0.00000000	          0.00000000	        -69.88563763	         35.00164532	         -5.50065557	         -1.80405723	         -0.00431234	         -0.16109597	          0.00000000	          0.00000000	          0.00000000	         -0.00001190	          0.00000681	         -0.00000161	         -1.80630619	          0.01537300	         -0.07805001	          0.00000000	          0.00000000	          0.00000000	         -0.00000000	         -0.00000000	          0.00000000	         -0.98028963	          0.00219401	         -0.51987925	          0.00000000	          0.00000000	          0.00000000	        -32.60185201	        184.04760962	        -38.00803322	         -0.86161087	         -0.01547387	         -0.40845110	          0.00000000	          0.00000000	          0.00000000	          1.16511771	         31.94004114	          6.87708179	         -0.82421636	         -0.00143572	         -0.48735411	          0.00000000	          0.00000000	          0.00000000	          0.25925254	          2.25484648	         -0.69169767	         -0.90179382	          0.00087888	         -0.50648926	          0.00000000	          0.00000000	          0.00000000	       -247.31125779	        398.60368045	         73.58281983	         -0.78533453	         -0.01389777	         -0.36711098	          0.00000000	          0.00000000	          0.00000000	         -0.04086995	          0.06193957	          0.03265038	         -0.75058399	          0.00698133	         -0.44127563	          0.00000000	          0.00000000	          0.00000000	
          3.35000000	          0.00000000	         -0.00000000	          0.00000000	         -1.75819442	          0.11967337	         -0.19406426	          0.00000000	          0.00000000	          0.00000000	          0.00000000	         -0.00000000	          0.00000000	         -1.76930359	          0.03661235	         -0.18862841	          0.00000000	          0.00000000	          0.00000000	         -0.00000000	         -0.00000000	         -0.00000000	         -1.78101073	          0.05446383	         -0.10495909	          0.00000000	          0.00000000	          0.00000000	         -0.00000000	         -0.00000000	         -0.00000000	         -1.76988336	          0.08802288	         -0.14711583	          0.00000000	          0.00000000	          0.00000000	        -43.41427065	         18.86504296	          2.36933068	         -1.77825853	         -0.00335927	         -0.15964464	          0.00000000	          0.00000000	          0.00000000	         -0.00005315	          0.00002779	          0.00000348	         -1.78753114	          0.01426401	         -0.07524416	          0.00000000	          0.00000000	          0.00000000	         -0.00000000	         -0.00000000	          0.00000000	         -0.97916219	          0.00494867	         -0.51839837	          0.00000000	          0.00000000	          0.00000000	        -23.14966672	        153.80889603	        -52.72601073	         -0.86034471	         -0.01444403	         -0.40827301	          0.00000000	          0.00000000	          0.00000000	         20.94163033	         55.63206977	          9.71523150	         -0.82307990	         -0.00242030	         -0.48855606	          0.00000000	          0.00000000	          0.00000000	          0.72836939	          1.58561827	         -0.88114129	         -0.90066637	          0.00171462	         -0.50638293	          0.00000000	          0.00000000	          0.00000000	       -258.61655091	        382.67329150	        118.64264204	         -0.78335012	         -0.01387979	         -0.36811465	          0.00000000	          0.00000000	          0.00000000	         -0.10632228	          0.25941178	          0.20404507	         -0.74824482	          0.00552222	         -0.44370305	          0.00000000	          0.00000000	          0.00000000	
          3.36000000	          0.00000000	         -0.00000000	          0.00000000	         -1.74365496	          0.12256508	         -0.17980249	          0.00000000	          0.00000000	          0.00000000	          0.00000000	         -0.00000000	          0.00000000	         -1.74253878	          0.03930191	         -0.18395335	          0.00000000	          0.00000000	          0.00000000	         -0.00000000	         -0.00000000	          0.00000000	         -1.76230610	          0.05423538	         -0.09951679	          0.00000000	          0.00000000	          0.00000000	         -0.00000000	         -0.00000000	         -0.00000000	         -1.75355919	          0.08927101	         -0.13719113	          0.00000000	          0.00000000	          0.00000000	          0.00000279	         -0.00000111	         -0.00000022	         -1.74793654	         -0.00161771	         -0.16016293	          0.00000000	          0.00000000	          0.00000000	         -0.00016339	          0.00007631	          0.00001903	         -1.76588704	          0.01314170	         -0.07496810	          0.00000000	          0.00000000	          0.00000000	         -0.00000062	         -0.00000110	          0.00000117	         -0.97973321	          0.00733725	         -0.51465256	          0.00000000	          0.00000000	          0.00000000	        -35.38760951	        146.80543083	       -117.55389549	         -0.85901097	         -0.01340094	         -0.40762292	          0.00000000	          0.00000000	          0.00000000	         88.78523954	         93.65643873	          8.23425619	         -0.82356898	         -0.00346917	         -0.48985198	          0.00000000	          0.00000000	          0.00000000	          1.16423224	          1.54171170	         -1.10723689	         -0.90125925	          0.00233094	         -0.50519809	          0.00000000	          0.00000000	          0.00000000	       -279.28597197	        359.72369660	        202.23069129	         -0.78072197	         -0.01377782	         -0.37000391	          0.00000000	          0.00000000	          0.00000000	          0.09552223	          1.11520825	          1.10868931	         -0.74678520	          0.00397651	         -0.44771602	          0.00000000	          0.00000000	          0.00000000	
